<svg xmlns="http://www.w3.org/2000/svg" xmlns:xlink="http://www.w3.org/1999/xlink" version="1.1" enable-background="new 0 0 1749.117 1653.254" xml:space="preserve" width="450" height="450" style=""><rect id="backgroundrect" width="100%" height="100%" x="0" y="0" fill="none" stroke="none" style="" class=""/>

<g class="currentLayer" style=""><title>Layer 1</title><g id="svg_1" class="selected" fill="none" stroke="#242424" stroke-opacity="1" opacity="1">
	<polygon fill="none" stroke="#242424" stroke-width="3.7037" stroke-miterlimit="10" points="17.150012969970703,150.1805877685547 163.8866834640503,150.1805877685547 205.48878002166748,16.0211181640625 240.64116954803467,16.0211181640625 289.33843517303467,147.27789306640625 433.1725721359253,147.27789306640625 446.0725965499878,176.94793701171875 334.16579723358154,264.9899597167969 386.4105176925659,401.72900390625 356.4180860519409,426.5614318847656 234.5136365890503,341.4219055175781 116.15690898895264,433.9788818359375 83.9070234298706,412.3714599609375 129.7018918991089,268.5373229980469 3.9274139404296875,181.46290588378906 " id="svg_2" fill-opacity="1" stroke-opacity="1" opacity="1"/>
	<polyline fill="none" stroke="#242424" stroke-width="3.7037" stroke-miterlimit="10" points="17.150012969970703,150.1805877685547 209.68146800994873,281.43731689453125 179.68909740447998,304.65728759765625 129.7018918991089,268.5373229980469 " id="svg_3" fill-opacity="1" stroke-opacity="1" opacity="1"/>
	<polyline fill="none" stroke="#242424" stroke-width="3.7037" stroke-miterlimit="10" points="83.9070234298706,412.3714599609375 268.37612438201904,274.34222412109375 279.6635694503784,307.88201904296875 234.5136365890503,341.4219055175781 " id="svg_4" fill-opacity="1" stroke-opacity="1" opacity="1"/>
	
		<line fill="none" stroke="#242424" stroke-width="3.7037" stroke-miterlimit="10" x1="268.3760539468562" y1="274.34225669436074" x2="246.44607549703665" y2="207.58526473671893" id="svg_5" opacity="1"/>
	<polyline fill="none" stroke="#242424" stroke-width="3.7037" stroke-miterlimit="10" points="258.70112133026123,244.67251586914062 230.96619701385498,264.6673583984375 201.2964735031128,243.7049560546875 228.06377696990967,147.27789306640625 289.33843517303467,147.27789306640625 " id="svg_6" fill-opacity="1" stroke-opacity="1" opacity="1"/>
	
		<line fill="none" stroke="#242424" stroke-width="3.7037" stroke-miterlimit="10" x1="218.38883823997247" y1="179.85036373856005" x2="446.0726020656663" y2="176.94791840821281" id="svg_7" opacity="1"/>
	<polyline fill="none" stroke="#242424" stroke-width="3.7037" stroke-miterlimit="10" points="163.8866834640503,150.1805877685547 146.7942304611206,206.61770629882812 201.2964735031128,243.7049560546875 " id="svg_8" fill-opacity="1" stroke-opacity="1" opacity="1"/>
	
		<line fill="none" stroke="#242424" stroke-width="3.7037" stroke-miterlimit="10" x1="240.6411688925198" y1="16.02112162793827" x2="177.75393397456784" y2="228.2250531283265" id="svg_9" opacity="1"/>
	<polyline fill="none" stroke="#242424" stroke-width="3.7037" stroke-miterlimit="10" points="356.4180860519409,426.5614318847656 276.11611461639404,207.58526611328125 310.94585704803467,207.58526611328125 334.16579723358154,264.9899597167969 " id="svg_10" fill-opacity="1" stroke-opacity="1" opacity="1"/>
	
		<line fill="none" stroke="#242424" stroke-width="3.7037" stroke-miterlimit="10" x1="276.11611011620005" y1="207.58526473671893" x2="210.64878207062864" y2="207.58526473671893" id="svg_11" opacity="1"/>
</g></g></svg>