<svg id="Layer_1" data-name="Layer 1" xmlns="http://www.w3.org/2000/svg" viewBox="0 0 174.95 42"><defs><style>.cls-1{fill:#40444d;fill-rule:evenodd;opacity:0.5;}</style></defs><path class="cls-1" d="M78.44,33.31,76,44.47H70.53L79.65,4h6.53l8.58,40.44H89.18L86.84,33.31Zm7.74-4.5-1.86-9.66c-.54-2.76-1.08-6.36-1.5-9.24h-.24c-.41,2.94-1,6.66-1.55,9.24l-1.92,9.66ZM115.83,3V37c0,2.22.12,5.46.24,7.5h-4.86l-.36-3.54h-.18a6.91,6.91,0,0,1-6.12,4c-5.4,0-8.7-5.88-8.7-14.94,0-10.32,4.38-15.18,9-15.18a5.41,5.41,0,0,1,5.22,3.3h.12V3Zm-5.64,23.46c0-.54,0-1.2-.06-1.8-.3-2.64-1.8-4.92-3.84-4.92-3.54,0-4.74,4.92-4.74,10.32,0,6,1.56,10.2,4.56,10.2,1.26,0,2.94-.66,3.9-4.14a8.5,8.5,0,0,0,.18-1.86ZM129.27,45c-5.82,0-10-5-10-15,0-10.62,5-15.12,10.32-15.12,5.76,0,9.9,5.16,9.9,15,0,11.58-5.7,15.12-10.14,15.12Zm.18-4.44c3.48,0,4.26-6.18,4.26-10.62s-.78-10.62-4.38-10.62-4.44,6.24-4.44,10.62c0,4.86.84,10.62,4.5,10.62ZM142.87,3h5.64V18.61h.12a6.63,6.63,0,0,1,6.11-3.78c5,0,8.11,5.64,8.11,14.58,0,10.44-4.26,15.54-9.06,15.54-2.89,0-4.5-1.56-5.77-4.14h-.23l-.3,3.66h-4.86c.12-2,.24-5.28.24-7.5V3Zm5.64,31.2a5.45,5.45,0,0,0,.24,1.8c.89,3.54,2.64,4.26,3.77,4.26,3.36,0,4.62-4.44,4.62-10.44,0-5.58-1.31-10.08-4.68-10.08-1.86,0-3.36,2.22-3.78,4.32a11,11,0,0,0-.18,2v8.16ZM171.17,31c.06,7.5,3.3,9.36,6.72,9.36a11.85,11.85,0,0,0,5-1.08l.84,4.08a16.16,16.16,0,0,1-7,1.38c-7.32,0-11.16-5.52-11.16-14.52,0-9.54,4.38-15.42,10.44-15.42S185,20.65,185,28c0,1.44-.07,2.34-.12,3.12L171.17,31Zm8.46-4c.06-5.16-1.74-7.92-4-7.92-2.94,0-4.26,4.26-4.44,7.92Z" transform="translate(-10.01 -2.95)"/><path class="cls-1" d="M38.74,4.14H55.59V44.47Zm-11.87,0H10V44.47ZM32.81,19,43.54,44.47h-7L33.3,36.36H25.44Z" transform="translate(-10.01 -2.95)"/></svg>