<svg id="Layer_1" data-name="Layer 1" xmlns="http://www.w3.org/2000/svg" viewBox="0 0 510.32 167.7"><defs><style>.cls-1{opacity:0.5;}.cls-2{fill:#40444d;}</style></defs><g class="cls-1"><path class="cls-2" d="M496.05,111.67l14.21,9.47a41.49,41.49,0,0,1-34.7,18.44c-23.67,0-41.3-18.31-41.3-41.61,0-24.8,17.81-41.62,39.3-41.62s32.21,17.2,35.64,26.48l1.87,4.73-55.7,23c4.24,8.35,10.84,12.59,20.19,12.59s15.82-4.61,20.49-11.53Zm-43.67-15,37.19-15.45c-2.05-5.17-8.16-8.85-15.45-8.85-9.28,0-22.17,8.23-21.74,24.3Z" transform="translate(-0.74 -9.26)"/><path class="cls-2" d="M407.41,13.93h17.94V135.78H407.41V13.93Z" transform="translate(-0.74 -9.26)"/><path class="cls-2" d="M379.12,59.59h17.32v74c0,30.71-18.13,43.36-39.55,43.36-20.19,0-32.34-13.58-36.88-24.61l15.88-6.6c2.87,6.79,9.78,14.82,21,14.82,13.76,0,22.23-8.53,22.23-24.48v-6h-.62c-4.11,5-12,9.47-21.93,9.47-20.8,0-39.87-18.13-39.87-41.49s19.07-41.8,39.87-41.8c9.91,0,17.82,4.42,21.93,9.28h.62v-6Zm1.25,38.5c0-14.7-9.78-25.41-22.24-25.41S335,83.39,335,98.09c0,14.52,10.59,25,23.17,25s22.24-10.52,22.24-25Z" transform="translate(-0.74 -9.26)"/><path class="cls-2" d="M218.22,97.78c0,24-18.69,41.61-41.62,41.61S135,121.7,135,97.78c0-24.11,18.69-41.68,41.61-41.68s41.62,17.57,41.62,41.68Zm-18.19,0c0-15-10.84-25.23-23.43-25.23s-23.42,10.28-23.42,25.23S164,123,176.6,123,200,112.61,200,97.78Z" transform="translate(-0.74 -9.26)"/><path class="cls-2" d="M309.1,98c0,24-18.68,41.61-41.61,41.61S225.88,122,225.88,98s18.69-41.62,41.61-41.62S309.1,73.8,309.1,98Zm-18.25,0c0-15-10.84-25.23-23.42-25.23S244,83,244,98s10.84,25.23,23.42,25.23S290.85,112.73,290.85,98Z" transform="translate(-0.74 -9.26)"/><path class="cls-2" d="M66.59,121.33c-26.1,0-46.53-21.06-46.53-47.16S40.49,27,66.59,27a45.28,45.28,0,0,1,32,12.65l12.52-12.52C100.48,17,86.34,9.26,66.59,9.26,30.83,9.26.74,38.41.74,74.17s30.09,64.91,65.85,64.91c19.31,0,33.89-6.35,45.29-18.19,11.71-11.71,15.32-28.16,15.32-41.49a70.33,70.33,0,0,0-1.06-11.65H66.59V85.07H109c-1.24,10.84-4.67,18.25-9.72,23.3-6.1,6.17-15.76,13-32.7,13Z" transform="translate(-0.74 -9.26)"/></g></svg>