<svg id="Layer_1" data-name="Layer 1" xmlns="http://www.w3.org/2000/svg" viewBox="0 0 512 142.04"><defs><style>.cls-1{opacity:0.5;}.cls-2{fill:#40444d;}</style></defs><g class="cls-1"><path class="cls-2" d="M0,50.11H30.47l17.7,45.32L66.11,50.11h29.7L51.14,157.54H21.31l12.26-28.41ZM126.68,48.3c-22.86,0-37.32,20.53-37.32,40.93,0,23,15.88,41.2,36.93,41.2,15.75,0,21.69-9.56,21.69-9.56v7.49h26.6V50.11H148v7.1C147.85,57.21,141.27,48.3,126.68,48.3Zm5.68,25.18c10.59,0,16,8.39,16,15.88,0,8.14-5.81,16.14-16,16.14-8.4,0-16-6.84-16-15.75S122.42,73.48,132.36,73.48Zm51.26,54.88V15.5h27.77v42s6.58-9.17,20.4-9.17c16.91,0,26.86,12.65,26.86,30.6v49.46H231V85.62c0-6.07-2.84-12-9.42-12s-10.2,5.94-10.2,12v42.74ZM306,48.3c-26.22,0-41.84,19.88-41.84,41.32,0,24.28,18.85,40.93,42,40.93C328.51,130.55,348,114.67,348,90,348,63,327.47,48.3,306,48.3Zm.26,25.31a15.72,15.72,0,0,1,15.62,15.88c0,7-5.94,15.63-15.62,15.63a15.44,15.44,0,0,1-15.5-15.76C290.8,81.23,296.22,73.61,306.3,73.61ZM394.23,48.3C368,48.3,352.4,68.18,352.4,89.62c0,24.28,18.85,40.93,42,40.93,22.34,0,41.84-15.88,41.84-40.54C436.2,63,415.8,48.3,394.23,48.3Zm.26,25.31a15.73,15.73,0,0,1,15.63,15.88c0,7-5.94,15.63-15.63,15.63A15.44,15.44,0,0,1,379,89.36C379,81.23,384.55,73.61,394.49,73.61Zm63.66,19.5a18.47,18.47,0,1,1-18.46,18.46A18.46,18.46,0,0,1,458.15,93.11Zm24.54-6.72H449.5L478.94,15.5H512Z" transform="translate(0 -15.5)"/></g></svg>