<svg id="Layer_1" data-name="Layer 1" xmlns="http://www.w3.org/2000/svg" viewBox="0 0 383.68 253.57"><defs><style>.cls-1{fill:#40444d;opacity:0.5;}</style></defs><path class="cls-1" d="M177,121v62H157V105h41c17,0,23,12,23,23v55H202V128c0-4-3-7-9-7Zm133-1c-11,0-15,7-15,17h31C325,128,322,120,310,120Zm-15,30c0,10,7,17,18,17,9,0,13-2,18-7l12,12c-8,7-16,12-30,12-19,0-37-10-37-40,0-26,8-40,36-40s33,20,33,46Zm-36,33c-16,0-23-11-23-23V84h20v21h15v16H256v38c0,5,2,7,7,7h8v17ZM140,94H120V75h20Zm0,90c-15-2-20-11-20-21V105h20Zm237-2c-15-1-20-10-20-21V73h20Zm69-97C428-3,258-8,148,59v7C258,10,413,10,428,91c4,27-11,55-38,71v21C423,171,456,132,446,85ZM246,239c-75,7-155-4-166-63-5-29,8-60,26-80V86c-32,28-49,63-39,105,12,53,80,84,184,74,41-4,95-18,132-38V198C349,218,293,235,246,239Z" transform="translate(-64.14 -13.29)"/></svg>