<svg id="Layer_1" data-name="Layer 1" xmlns="http://www.w3.org/2000/svg" xmlns:xlink="http://www.w3.org/1999/xlink" viewBox="0 0 744.29 392.29"><defs><style>.cls-1{fill:none;}.cls-2,.cls-5{fill:#40444d;}.cls-2,.cls-4{opacity:0.5;}.cls-3{clip-path:url(#clip-path);}</style><clipPath id="clip-path" transform="translate(-16.11 -22.7)"><rect class="cls-1" y="6.61" width="797.66" height="454.44"/></clipPath></defs><path class="cls-2" d="M259.25,412.69H226.61V283.36h32.64V412.69Z" transform="translate(-16.11 -22.7)"/><g class="cls-3"><g class="cls-4"><path class="cls-5" d="M522.39,320.42a56.89,56.89,0,0,0-27.45-6.91c-21.1,0-35.74,14.68-35.74,34.5,0,19.21,14,34.52,35.74,34.52a57.83,57.83,0,0,0,27.45-6.86v34.71a104.59,104.59,0,0,1-29.74,4.6c-36.7,0-68.92-25.31-68.92-67,0-38.61,29.15-66.94,68.92-66.94a99.27,99.27,0,0,1,29.74,4.64Zm-340.64,0a56.57,56.57,0,0,0-27.41-6.91c-21.14,0-35.77,14.68-35.77,34.5,0,19.21,14,34.52,35.77,34.52a57.51,57.51,0,0,0,27.41-6.86v34.71A104.08,104.08,0,0,1,152,415c-36.68,0-68.86-25.31-68.86-67,0-38.61,29.15-66.94,68.87-66.94a98.9,98.9,0,0,1,29.76,4.64ZM625.05,314c-19.36,0-33.74,15.23-33.74,34s14.38,34,33.74,34,33.77-15.23,33.77-34-14.42-34-33.77-34m68.34,34c0,37-28.56,67-68.33,67s-68.3-30-68.3-67,28.53-66.94,68.29-66.94,68.34,30,68.34,66.95M383,312.76c-.49-.16-14.23-3.95-25.52-3.95-13.07,0-20.18,4.38-20.18,10.59,0,7.88,9.59,10.63,14.95,12.33l9,2.86c21.19,6.74,30.83,21.24,30.83,37,0,32.49-28.57,43.4-53.54,43.4a196.08,196.08,0,0,1-35.22-3.53V381.68c2.87.73,16.56,4.82,30.81,4.82,16.24,0,23.71-4.75,23.71-12.07,0-6.56-6.46-10.34-14.56-12.88-2-.66-4.94-1.59-7-2.26C318.16,353.55,303,342.86,303,321.46,303,297.27,321.12,281,351.2,281A140.47,140.47,0,0,1,383,285.14v27.61Z" transform="translate(-16.11 -22.7)"/><path class="cls-5" d="M48.51,144.37a16.2,16.2,0,0,0-32.4,0v34a16.21,16.21,0,0,0,32.4,0Zm89-44.55a16.21,16.21,0,1,0-32.41,0v78.5a16.21,16.21,0,0,0,32.41,0h0V99.81Zm89-61a16.21,16.21,0,0,0-32.41,0V210.58a16.21,16.21,0,0,0,32.41,0Zm89,61a16.2,16.2,0,1,0-32.4,0v78.5a16.2,16.2,0,1,0,32.4,0h0V99.81Zm88.9,44.55a16.15,16.15,0,0,0-32.3,0v34a16.15,16.15,0,0,0,32.3,0h0Zm89-44.55a16.16,16.16,0,0,0-32.3,0v78.5a16.15,16.15,0,1,0,32.3,0h0V99.81Zm89.06-61a16.16,16.16,0,0,0-32.31,0V210.58A16.17,16.17,0,0,0,582.5,212c0-.47,0-.95,0-1.42Zm89,61a16.25,16.25,0,0,0-32.5,0v78.51a16.25,16.25,0,0,0,32.5,0V99.81Zm88.87,44.55a16.17,16.17,0,1,0-32.33,0v33.95a16.16,16.16,0,1,0,32.32,0V144.37Z" transform="translate(-16.11 -22.7)"/></g></g></svg>