<svg id="Layer_1" data-name="Layer 1" xmlns="http://www.w3.org/2000/svg" viewBox="0 0 24 4.96"><defs><style>.cls-1{fill:#40444d;opacity:0.5;}</style></defs><path class="cls-1" d="M23.9,2V.76H19.25a1.35,1.35,0,0,0-1.48,1.18V.76H16.4V2h7.5Zm-6.14.46L16.39,2.4V3.86c0,.45-.23.59-1,.59H14.28c-.65,0-.93-.18-.93-.59V2.26L12,2.16V4h0c-.07-.53-.27-1.14-1.59-1.23L6,2.45c0,.67.47,1.07,1.22,1.14l3,.31c.24,0,.42.09.42.29s-.18.24-.46.24H6v-2L4.56,2.36V5.71h5.65c1.26,0,1.66-.65,1.72-1.2h0c.15.87.91,1.2,2.19,1.2h1.41c1.49,0,2.2-.45,2.2-1.52Zm4.4.26-4.34-.26A1.15,1.15,0,0,0,19,3.65l3.09.24c.24,0,.39.08.39.27s-.17.26-.52.26H17.75V5.71h4.3c1.36,0,1.95-.47,1.95-1.55S23.47,2.82,22.16,2.74ZM12,.76h1.39V2H12ZM3.8,2.3,2.29,2.15,0,5.71H1.69ZM11.71.76H7.48A1.42,1.42,0,0,0,6,2V.76H3.62A.65.65,0,0,0,3,1.09L2.33,2h9.38Z" transform="translate(0 -0.76)"/></svg>