<svg id="Layer_1" data-name="Layer 1" xmlns="http://www.w3.org/2000/svg" viewBox="0 0 330.83 256.13"><defs><style>.cls-1{fill:#40444d;opacity:0.5;}</style></defs><path class="cls-1" d="M31.41,205.22H0v62H17.65V220.15H31.32c4.52,0,7.75,1.13,9.93,3.46,2.77,2.94,3.9,7.7,3.9,16.4v27.22H62.24V233C62.24,208.52,46.66,205.22,31.41,205.22Z" transform="translate(0 -11.11)"/><polygon class="cls-1" points="112.37 194.2 97.77 243.28 83.79 194.21 64.91 194.2 84.88 256.13 110.09 256.13 130.22 194.2 112.37 194.2"/><path class="cls-1" d="M282.87,205.33h0l-24.42,61.88h17.24l3.86-10.93h28.91l3.65,10.93h18.72l-24.6-61.89Zm.42,40.28,10.93-29h0l10.6,29Z" transform="translate(0 -11.11)"/><rect class="cls-1" x="233.83" y="194.2" width="17.5" height="61.92"/><rect class="cls-1" x="137.59" y="194.2" width="17.49" height="61.93"/><path class="cls-1" d="M190.29,205.31H165.74v61.92h28.37c15.11,0,20-2.51,25.38-8.14,3.77-4,6.21-12.64,6.21-22.14,0-8.7-2.06-16.47-5.66-21.3C213.56,207,204.22,205.31,190.29,205.31Zm.32,48.7h-7.52V218.79h7.52c10.91,0,18,4.9,18,17.61S201.52,254,190.61,254Z" transform="translate(0 -11.11)"/><path class="cls-1" d="M47,82S69.53,48.8,114.46,45.37v-12c-49.77,4-92.87,46.15-92.87,46.15S46,150,114.46,156.5V143.69C64.22,137.37,47,82,47,82Zm67.44,36.22V130C76.49,123.19,66,83.72,66,83.72a82.13,82.13,0,0,1,48.51-23.47V73.12h-.06C98.51,71.2,86.1,86.05,86.1,86.05s7,25,28.36,32.18m0-107.12V33.32c1.46-.11,2.92-.2,4.39-.25,56.58-1.91,93.45,46.4,93.45,46.4S170,131,125.84,131a65,65,0,0,1-11.38-1v13.73a75.08,75.08,0,0,0,9.48.62c41.05,0,70.74-21,99.49-45.78,4.76,3.82,24.27,13.1,28.28,17.17-27.33,22.88-91,41.33-127.14,41.33-3.48,0-6.82-.22-10.11-.53v19.3h156V11.11Zm0,49.14V45.37c1.45-.1,2.9-.18,4.39-.23,40.69-1.27,67.38,35,67.38,35s-28.83,40-59.74,40a37.37,37.37,0,0,1-12-1.92V73.12C130.3,75,133.49,82,143,97.9L164.19,80s-15.46-20.27-41.52-20.27a75.19,75.19,0,0,0-8.21.48" transform="translate(0 -11.11)"/></svg>