<svg id="Layer_1" data-name="Layer 1" xmlns="http://www.w3.org/2000/svg" viewBox="0 0 166 94"><defs><style>.cls-1{fill:none;}.cls-2{fill:#4285f4;}.cls-3{fill:#669df6;}.cls-4{fill:#aecbfa;}.cls-5{fill:#fff;}</style></defs><rect id="backgroundrect" class="cls-1" width="166" height="94"/><path id="svg_1" data-name="svg 1" class="cls-2" d="M93.93,11.36a2,2,0,0,1,2,2.05V38.6a1.65,1.65,0,0,1-1.52,1.77,1.41,1.41,0,0,1-.29,0H64.67l-5.9,5.89V13.41a2,2,0,0,1,2-2.05Z" transform="translate(0 22.66)"/><rect id="svg_2" data-name="svg 2" class="cls-3" x="83.82" y="46.33" width="7.36" height="11.61"/><rect id="svg_3" data-name="svg 3" class="cls-4" x="73.88" y="39.9" width="7.38" height="18.33"/><rect id="svg_4" data-name="svg 4" class="cls-5" x="64.12" y="45.44" width="7.23" height="12.66"/><path id="svg_5" data-name="svg 5" class="cls-3" d="M105.07,2.42a2.16,2.16,0,0,1,2.16,2.06V39.73l-5.82-5.82H99.47v-24a2.12,2.12,0,0,0-2.13-2.12H67.5V4.6a2.16,2.16,0,0,1,2.06-2.18Z" transform="translate(0 22.66)"/></svg>