<svg id="Layer_1" data-name="Layer 1" xmlns="http://www.w3.org/2000/svg" viewBox="0 0 166 94"><defs><style>.cls-1{fill:none;}.cls-2{fill:#ea4335;}.cls-3{fill:#4285f4;}.cls-4{fill:#34a853;}.cls-5{fill:#fbbc05;}</style></defs><rect id="backgroundrect" class="cls-1" width="166" height="94"/><g id="svg_1" data-name="svg 1"><path id="svg_2" data-name="svg 2" class="cls-2" d="M93.88,18.6l5.73-5.73.39-2.42C89.55,1,73,2,63.53,12.7a26.64,26.64,0,0,0-5.59,10.47L60,22.88,71.46,21l.88-.9A14.36,14.36,0,0,1,92,18.5Z" transform="translate(0 16.53)"/><path id="svg_3" data-name="svg 3" class="cls-3" d="M107.78,23A25.87,25.87,0,0,0,100,10.45L92,18.5A14.29,14.29,0,0,1,97.2,29.84v1.43a7.12,7.12,0,1,1,0,14.24H82.86L81.45,47v8.58L82.86,57H97.2a18.57,18.57,0,0,0,10.58-34" transform="translate(0 16.53)"/><path id="svg_4" data-name="svg 4" class="cls-4" d="M68.54,57H82.86V45.51H68.54a6.88,6.88,0,0,1-2.93-.65l-2,.63L57.8,51.22l-.5,2A18.6,18.6,0,0,0,68.54,57" transform="translate(0 16.53)"/><path id="svg_5" data-name="svg 5" class="cls-5" d="M68.54,19.79A18.62,18.62,0,0,0,57.3,53.17l8.31-8.31a7.15,7.15,0,1,1,9.47-9.47l8.3-8.3a18.56,18.56,0,0,0-14.84-7.3" transform="translate(0 16.53)"/></g></svg>