<svg id="Layer_1" data-name="Layer 1" xmlns="http://www.w3.org/2000/svg" viewBox="0 0 149.94 124.35"><defs><style>.cls-1{fill:#364548;}.cls-1,.cls-2,.cls-3,.cls-4,.cls-5,.cls-6,.cls-7,.cls-8,.cls-9{fill-rule:evenodd;}.cls-2{fill:#22a0c8;}.cls-3{fill:#37b1d9;}.cls-4{fill:#1b81a5;}.cls-5{fill:#1d91b4;}.cls-6{fill:#23a3c2;}.cls-7{fill:#34bbde;}.cls-8{fill:#d3ecec;}.cls-9{fill:#bdd9d7;}</style></defs><path class="cls-1" d="M29.09,104.26V94.77a2.08,2.08,0,0,1,2.1-2.24h.36a2.08,2.08,0,0,1,2.09,2.24v20A12.55,12.55,0,0,1,27,126a12.68,12.68,0,0,1-6.42,1.74h-.9a12.77,12.77,0,0,1-11.34-6.6,12.24,12.24,0,0,1-1.75-6.35v-.89a12.56,12.56,0,0,1,6.67-11.21,12.57,12.57,0,0,1,6.42-1.73h.9a12.72,12.72,0,0,1,8.55,3.35Zm-18,10a8.54,8.54,0,0,0,4.85,7.85,8.48,8.48,0,0,0,4.06,1,8.76,8.76,0,0,0,7.87-4.55,8.27,8.27,0,0,0,1.22-4.43,8.57,8.57,0,0,0-3.94-7.2,8.58,8.58,0,0,0-5.06-1.61,8.65,8.65,0,0,0-8.19,5.28,8.22,8.22,0,0,0-.81,3.62ZM49.4,100.91H50A12.91,12.91,0,0,1,61.84,108a12,12,0,0,1,1.56,5.88v.89A12.56,12.56,0,0,1,56.72,126a12.7,12.7,0,0,1-6.42,1.73h-.9a12.76,12.76,0,0,1-11.34-6.6,12.24,12.24,0,0,1-1.75-6.35v-.89A13.21,13.21,0,0,1,49.4,100.91ZM40.85,114.3A8.65,8.65,0,0,0,45.46,122a8.49,8.49,0,0,0,4.48,1.2,8.7,8.7,0,0,0,7.69-4.55,8.27,8.27,0,0,0,1.22-4.43,9.14,9.14,0,0,0-9-8.81,8.63,8.63,0,0,0-8.19,5.28,8.09,8.09,0,0,0-.81,3.62Zm41.44-8.54a8.6,8.6,0,0,0-2.71-.45c-3.8-.14-6.55,2-8.16,5.28a8.09,8.09,0,0,0-.81,3.62c0,3.84,2,6.54,5.52,8.18a10.45,10.45,0,0,0,4.29.71,11.51,11.51,0,0,0,4-1.24l.19-.09h.84l.09,0a2,2,0,0,1,1.81,2v.44c0,2.73-5,3.36-7,3.49-6.81.47-11.9-3.23-13.84-9.65a11.38,11.38,0,0,1-.49-3.38v-.89a13.21,13.21,0,0,1,13.09-12.94h.9a11.66,11.66,0,0,1,6.65,2l.17.11.1.17a2.29,2.29,0,0,1,.4,1.18v.45a2,2,0,0,1-1.91,2l-.09,0h-.27a10.27,10.27,0,0,1-2.82-1Zm14.74,3q2.64-2.62,5.32-5.21c.5-.48,2.39-2.51,3.14-2.51h.81l.09,0a2,2,0,0,1,1.82,2v.44c0,.75-.89,1.62-1.38,2.14-1,1.09-2.15,2.15-3.22,3.22l-5.49,5.51q3.55,3.51,7.07,7.05c.66.65,1.3,1.3,1.94,2a4.87,4.87,0,0,1,.75.86,1.84,1.84,0,0,1,.33,1v.47l0,.1a2.13,2.13,0,0,1-2.06,1.86h-.36c-.75,0-1.6-.85-2.12-1.33-1.06-1-2.08-2-3.13-3L97,119.94v5.41a2.08,2.08,0,0,1-2.1,2.25h-.35a2.08,2.08,0,0,1-2.1-2.25V94.86a2.08,2.08,0,0,1,2.1-2.24h.35A2.08,2.08,0,0,1,97,94.86V108.8Zm56.63-7.72h.45a2.14,2.14,0,0,1,2.28,2.25c0,1.86-1.8,2.34-3.36,2.34a8.17,8.17,0,0,0-5.39,2.59,8.48,8.48,0,0,0-2.53,6.3v10.88a2.08,2.08,0,0,1-2.09,2.25h-.36a2.08,2.08,0,0,1-2.09-2.25v-11.5a13.3,13.3,0,0,1,13.09-12.86Zm-32.29,21.55a10.64,10.64,0,0,0,5.23.2c.87-.36,3.09-1.32,3.9-1.18l.13,0,.12.06a2.59,2.59,0,0,1,1.23,1.08,2.14,2.14,0,0,1-.86,3l-.39.22c-4.31,2.46-8.9,2.12-13.19-.18a12.06,12.06,0,0,1-4.79-4.71l-.27-.46c-2.77-4.74-2.39-9.72.73-14.23a12.33,12.33,0,0,1,4.13-3.7l.62-.36a13,13,0,0,1,12.58-.12,12.2,12.2,0,0,1,5.31,4.87l.23.38c.91,1.56-.27,2.92-1.49,3.84-1.41,1.08-2.83,2.37-4.19,3.53l-9,7.72Zm-3.91-2.71q5.06-4.28,10.11-8.58c1.15-1,2.41-2,3.55-3a8.94,8.94,0,0,0-3.74-2.45,8.66,8.66,0,0,0-7.61.71,8.48,8.48,0,0,0-4.37,8.22,7.85,7.85,0,0,0,1.18,3.94A10.45,10.45,0,0,0,117.46,119.92Zm-24.52-90h13.41V43.46h6.78a29.74,29.74,0,0,0,9.31-1.54,24.1,24.1,0,0,0,4.53-2,16.52,16.52,0,0,1-3.14-8.57c-.39-4.14.46-9.52,3.29-12.76L128.53,17l1.68,1.34c4.23,3.35,7.78,8.05,8.41,13.4,5.09-1.48,11.07-1.13,15.56,1.43l1.84,1-1,1.87c-3.79,7.32-11.73,9.59-19.49,9.19C124,73.82,98.68,87.35,68,87.35c-15.83,0-30.36-5.85-38.63-19.73l-.14-.23L28.06,65A38,38,0,0,1,25,45.47l.19-2H36.62V29.91H50V16.66H76.85V3.4H92.94V29.91" transform="translate(-6.45 -3.4)"/><path class="cls-2" d="M136.38,34.93c.9-6.91-4.33-12.34-7.57-14.91-3.74,4.27-4.32,15.46,1.55,20.18-3.28,2.87-10.17,5.47-17.23,5.47H27.19a35.46,35.46,0,0,0,3.56,19.74l1,1.77a31.58,31.58,0,0,0,2,3q5.3.33,9.77.24h0a48.13,48.13,0,0,0,14.25-2.06,1.05,1.05,0,0,1,1.3.68,1,1,0,0,1-.62,1.25c-.48.17-1,.32-1.5.47h0a45.56,45.56,0,0,1-9.86,1.59c.24,0-.24,0-.24,0l-.44,0c-1.55.08-3.23.1-4.94.1-1.88,0-3.72,0-5.79-.14l0,0C42.8,80.37,54,85.14,68,85.14c29.7,0,54.9-13,66.05-42.23,7.92.8,15.52-1.19,19-7.87-5.51-3.14-12.6-2.14-16.68-.11" transform="translate(-6.45 -3.4)"/><path class="cls-3" d="M136.38,34.93c.9-6.91-4.33-12.34-7.57-14.91-3.74,4.27-4.32,15.46,1.55,20.18-3.28,2.87-10.17,5.47-17.23,5.47H32.28c-.35,11.16,3.84,19.63,11.25,24.75h0a48.13,48.13,0,0,0,14.25-2.06,1.05,1.05,0,0,1,1.3.68,1,1,0,0,1-.62,1.25c-.48.17-1,.32-1.5.47h0a48,48,0,0,1-10.12,1.66l-.1-.09c10.11,5.12,24.77,5.1,41.57-1.28,18.84-7.15,36.38-20.78,48.61-36.38l-.54.26" transform="translate(-6.45 -3.4)"/><path class="cls-4" d="M27.35,54.52a33.63,33.63,0,0,0,3.4,10.89l1,1.77a31.58,31.58,0,0,0,2,3q5.3.33,9.77.24a48.13,48.13,0,0,0,14.25-2.06,1.05,1.05,0,0,1,1.3.68,1,1,0,0,1-.62,1.25c-.48.17-1,.32-1.5.47h0a48,48,0,0,1-10.1,1.62l-.51,0c-1.55.09-3.21.14-4.93.14-1.87,0-3.79,0-5.85-.14C42.73,80.35,54,85.14,68,85.14c25.43,0,47.55-9.54,60.39-30.62H27.35" transform="translate(-6.45 -3.4)"/><path class="cls-5" d="M33.05,54.52a25.48,25.48,0,0,0,10.48,15.9,48.13,48.13,0,0,0,14.25-2.06,1.05,1.05,0,0,1,1.3.68,1,1,0,0,1-.62,1.25c-.48.17-1,.32-1.5.47h0a48.68,48.68,0,0,1-10.17,1.62c10.1,5.13,24.72,5.05,41.52-1.33A109.81,109.81,0,0,0,117,54.52h-84" transform="translate(-6.45 -3.4)"/><path class="cls-6" d="M38.85,32.12H50.47V43.61H38.85Zm1,1h.92v9.57h-.92Zm1.73,0h1v9.57h-1V33.08Zm1.76,0h.95v9.57h-.95Zm1.76,0h1v9.57h-1Zm1.76,0h1v9.57h-1Zm1.76,0h.92v9.57h-.92Zm3.67-14.21H63.89V30.35H52.26V18.87Zm1,.95h.92V29.4h-.92Zm1.73,0h.95V29.4H55V19.82Zm1.76,0h1V29.4h-1Zm1.76,0h1V29.4h-1Zm1.76,0h.95V29.4h-.95Zm1.76,0h.92V29.4H62Z" transform="translate(-6.45 -3.4)"/><path class="cls-7" d="M52.26,32.12H63.89V43.61H52.26V32.12Zm1,1h.92v9.57h-.92Zm1.73,0h.95v9.57H55V33.08Zm1.76,0h1v9.57h-1Zm1.76,0h1v9.57h-1Zm1.76,0h.95v9.57h-.95Zm1.76,0h.92v9.57H62Z" transform="translate(-6.45 -3.4)"/><path class="cls-6" d="M65.67,32.12H77.29V43.61H65.67Zm1,1h.92v9.57h-.92Zm1.72,0h1v9.57h-1Zm1.77,0h1v9.57h-1Zm1.76,0h1v9.57h-1Zm1.76,0h.95v9.57h-.95Zm1.76,0h.92v9.57h-.92Z" transform="translate(-6.45 -3.4)"/><path class="cls-7" d="M65.67,18.87H77.29V30.35H65.67Zm1,.95h.92V29.4h-.92Zm1.72,0h1V29.4h-1Zm1.77,0h1V29.4h-1Zm1.76,0h1V29.4h-1Zm1.76,0h.95V29.4h-.95Zm1.76,0h.92V29.4h-.92Zm3.67,12.3H90.7V43.61H79.08Zm1,1H81v9.57h-.92Zm1.72,0h1v9.57h-1Zm1.77,0h.95v9.57h-.95Zm1.76,0h1v9.57h-1Zm1.76,0h1v9.57h-1Zm1.76,0h.92v9.57h-.92Z" transform="translate(-6.45 -3.4)"/><path class="cls-6" d="M79.08,18.87H90.7V30.35H79.08Zm1,.95H81V29.4h-.92Zm1.72,0h1V29.4h-1Zm1.77,0h.95V29.4h-.95Zm1.76,0h1V29.4h-1Zm1.76,0h1V29.4h-1Zm1.76,0h.92V29.4h-.92Z" transform="translate(-6.45 -3.4)"/><path class="cls-7" d="M79.08,5.61H90.7V17.1H79.08Zm1,1H81v9.57h-.92V6.57Zm1.72,0h1v9.57h-1V6.57Zm1.77,0h.95v9.57h-.95V6.57Zm1.76,0h1v9.57h-1V6.57Zm1.76,0h1v9.57h-1V6.57Zm1.76,0h.92v9.57h-.92V6.57Z" transform="translate(-6.45 -3.4)"/><path class="cls-6" d="M92.49,32.12h11.62V43.61H92.49Zm1,1h.92v9.57h-.92V33.08Zm1.72,0h1v9.57h-1V33.08Zm1.76,0h1v9.57h-1Zm1.77,0h1v9.57h-1Zm1.76,0h1v9.57h-1Zm1.76,0h.91v9.57h-.91Z" transform="translate(-6.45 -3.4)"/><path class="cls-8" d="M63.16,62.24a3.17,3.17,0,1,1,.08,6.34h-.08a3.17,3.17,0,1,1,0-6.34" transform="translate(-6.45 -3.4)"/><path class="cls-1" d="M63.16,63.14a2.31,2.31,0,0,1,.83.15.92.92,0,0,0-.34,1.27.94.94,0,0,0,1.63,0,2.27,2.27,0,0,1-1.24,3,2.31,2.31,0,0,1-3-1.22,2.26,2.26,0,0,1,1.24-3,2.22,2.22,0,0,1,.88-.17M6.45,55.67H155.59c-3.24-.82-10.27-1.92-9.11-6.12-5.91,6.75-20.15,4.74-23.74,1.41-4,5.73-27.3,3.55-28.93-.92-5,5.82-20.56,5.82-25.58,0C66.6,54.51,43.3,56.69,39.3,51c-3.59,3.33-17.83,5.34-23.74-1.41,1.16,4.2-5.87,5.3-9.11,6.12" transform="translate(-6.45 -3.4)"/><path class="cls-9" d="M71.68,85.07C63.74,81.35,59.38,76.29,57,70.76a50,50,0,0,1-10.62,1.59c-1.55.09-3.18.13-4.89.13q-3,0-6.25-.17C42.49,79.5,51.44,85,68,85.14c1.23,0,2.44,0,3.65-.07" transform="translate(-6.45 -3.4)"/><path class="cls-8" d="M59.91,75.86A27.16,27.16,0,0,1,57,70.76a50,50,0,0,1-10.62,1.59c2.83,1.52,6.88,2.93,13.57,3.51" transform="translate(-6.45 -3.4)"/></svg>