<svg id="Layer_1" data-name="Layer 1" xmlns="http://www.w3.org/2000/svg" viewBox="0 0 50.21 50.11"><defs><style>.cls-1,.cls-3{fill:none;}.cls-2{fill:#707580;}.cls-3{stroke:#707580;}.cls-4{stroke:#6d6d6d;}</style></defs><rect id="backgroundrect" class="cls-1" y="0.06" width="50" height="50"/><g id="svg_2" data-name="svg 2"><path id="svg_3" data-name="svg 3" class="cls-2" d="M16.88,16.8h16a2,2,0,0,1,2,1.94V30.38a2,2,0,0,1-2,1.94H16.88a2,2,0,0,1-2-1.94V18.74A2,2,0,0,1,16.88,16.8Zm-2,3.42,10,5,10-5.15V18.82l-10,5-10-4.89Z" transform="translate(0 0.06)"/></g><path id="svg_4" data-name="svg 4" class="cls-3" d="M.59,25A24.56,24.56,0,1,1,25.15,49.56,24.55,24.55,0,0,1,.59,25Z" transform="translate(0 0.06)"/><path id="svg_6" data-name="svg 6" class="cls-4" d="M5.15,5Z" transform="translate(0 0.06)"/></svg>