<?xml version="1.0" encoding="utf-8"?>
<!-- Generator: Adobe Illustrator 26.1.0, SVG Export Plug-In . SVG Version: 6.00 Build 0)  -->
<svg version="1.1" id="Шар_1" xmlns="http://www.w3.org/2000/svg" xmlns:xlink="http://www.w3.org/1999/xlink" x="0px" y="0px"
	 viewBox="0 0 489.6 489.6" style="enable-background:new 0 0 489.6 489.6;" xml:space="preserve">
<style type="text/css">
	.st0{fill:none;}
	.st1{fill:#FFFFFF;}
</style>
<rect id="backgroundrect" class="st0" width="489.6" height="489.6"/>
<g>
	<g id="svg_2">
		<path id="svg_3" class="st1" d="M245.6,0C110.6,0,0.8,109.8,0.8,244.8s109.8,244.8,244.8,244.8s244.8-109.8,244.8-244.8
			S380.6,0,245.6,0z M245.6,469.8c-124.1,0-225-100.9-225-225s100.9-225,225-225s225,100.9,225,225S369.7,469.8,245.6,469.8z"/>
		<path id="svg_4" class="st1" d="M224.9,163.5c-1.9-1.9-4.5-2.9-7-2.9s-5.1,1-7,2.9c-3.9,3.9-3.9,10.1,0,14l67.3,67.3l-67.3,67.3
			c-3.9,3.9-3.9,10.1,0,14s10.1,3.9,14,0l74.3-74.3c3.9-3.9,3.9-10.1,0-14L224.9,163.5z"/>
	</g>
	<g id="svg_5">
	</g>
	<g id="svg_6">
	</g>
	<g id="svg_7">
	</g>
	<g id="svg_8">
	</g>
	<g id="svg_9">
	</g>
	<g id="svg_10">
	</g>
	<g id="svg_11">
	</g>
	<g id="svg_12">
	</g>
	<g id="svg_13">
	</g>
	<g id="svg_14">
	</g>
	<g id="svg_15">
	</g>
	<g id="svg_16">
	</g>
	<g id="svg_17">
	</g>
	<g id="svg_18">
	</g>
	<g id="svg_19">
	</g>
</g>
</svg>
