<svg xmlns="http://www.w3.org/2000/svg" xmlns:xlink="http://www.w3.org/1999/xlink" version="1.1" style="" xml:space="preserve" width="489.6000061035156" height="489.6000061035156"><rect id="backgroundrect" width="100%" height="100%" x="0" y="0" fill="none" stroke="none"/>
















<g class="currentLayer" style=""><title>Layer 1</title>
	<g id="svg_2" class="selected" fill="#ffffff" fill-opacity="1">
		<path style="" d="M245.5692307829857,489.6 c135,0 244.8,-109.8 244.8,-244.8 S380.5692307829857,0 245.5692307829857,0 S0.7692307829856873,109.8 0.7692307829856873,244.8 S110.56923078298568,489.6 245.5692307829857,489.6 zM245.5692307829857,19.8 c124.1,0 225,100.9 225,225 s-100.9,225 -225,225 s-225,-100.9 -225,-225 S121.46923078298569,19.8 245.5692307829857,19.8 z" id="svg_3" fill="#ffffff" fill-opacity="1"/>
		<path style="" d="M266.2692307829857,326.1 c1.9,1.9 4.5,2.9 7,2.9 s5.1,-1 7,-2.9 c3.9,-3.9 3.9,-10.1 0,-14 l-67.3,-67.3 l67.3,-67.3 c3.9,-3.9 3.9,-10.1 0,-14 s-10.1,-3.9 -14,0 l-74.3,74.3 c-3.9,3.9 -3.9,10.1 0,14 L266.2692307829857,326.1 z" id="svg_4" fill="#ffffff" fill-opacity="1"/>
	</g>
<g id="svg_5">
</g><g id="svg_6">
</g><g id="svg_7">
</g><g id="svg_8">
</g><g id="svg_9">
</g><g id="svg_10">
</g><g id="svg_11">
</g><g id="svg_12">
</g><g id="svg_13">
</g><g id="svg_14">
</g><g id="svg_15">
</g><g id="svg_16">
</g><g id="svg_17">
</g><g id="svg_18">
</g><g id="svg_19">
</g></g></svg>