<svg xmlns="http://www.w3.org/2000/svg" xmlns:xlink="http://www.w3.org/1999/xlink" version="1.1" width="112.53846159489191" height="32.923076810216" style="enable-background:new 0 0 97.361 97.361;" xml:space="preserve"><rect id="backgroundrect" width="100%" height="100%" x="0" y="0" fill="none" stroke="none" style="" class=""/>
















<g class="currentLayer" style=""><title>Layer 1</title><g id="svg_8">
</g><g id="svg_1" class="" fill="#ffffff" fill-opacity="1">
	<g id="svg_2" fill="#ffffff" fill-opacity="1">
		<path d="M31.012829747799856,7.887485958976171 H19.127195000083333 v18.195740826106118 h19.31320274547108 V0.395704075825302 h-7.4275679977545535 V7.887485958976171 zM31.012829747799856,21.801973000206125 H26.55552597349249 V12.169839051538787 h4.4573037743073565 V21.801973000206125 z" id="svg_3" fill="#ffffff" fill-opacity="1"/>
		<rect x="41.41295061655545" y="7.887486613166232" width="7.42756773580765" height="18.19574087642843" id="svg_4" fill="#ffffff" fill-opacity="1"/>
		<rect x="41.41295061655545" y="0.3957041429217192" width="7.42756773580765" height="5.351979727282711" id="svg_5" fill="#ffffff" fill-opacity="1"/>
		<path d="M51.81230906847648,26.083226785082292 h11.88563474771653 V28.223578850598756 H51.81230906847648 v4.28180343871939 h19.31320274547108 V7.887485958976171 H51.81230906847648 V26.083226785082292 zM59.242165993194895,12.169839051538787 h4.456540798652732 v9.63213394866734 h-4.456540798652732 V12.169839051538787 z" id="svg_6" fill="#ffffff" fill-opacity="1"/>
		<path d="M74.09882794001321,7.887485958976171 v18.195740826106118 h11.884871772061908 V28.223578850598756 H74.09882794001321 v4.28180343871939 h19.31243976981646 V7.887485958976171 H74.09882794001321 zM85.98369971207515,21.801973000206125 h-4.4573037743073565 V12.169839051538787 h4.4573037743073565 V21.801973000206125 z" id="svg_7" fill="#ffffff" fill-opacity="1"/>
	</g>
</g><g id="svg_9">
</g><g id="svg_10">
</g><g id="svg_11">
</g><g id="svg_12">
</g><g id="svg_13">
</g><g id="svg_14">
</g><g id="svg_15">
</g><g id="svg_16">
</g><g id="svg_17">
</g><g id="svg_18">
</g><g id="svg_19">
</g><g id="svg_20">
</g><g id="svg_21">
</g><g id="svg_22">
</g></g></svg>