<svg xmlns="http://www.w3.org/2000/svg" xmlns:xlink="http://www.w3.org/1999/xlink" version="1.1" width="169" height="35" style="" xml:space="preserve"><rect id="backgroundrect" width="100%" height="100%" x="0" y="0" fill="none" stroke="none" style="" class=""/>
















<g class="currentLayer" style=""><title>Layer 1</title><g id="svg_1" class="" fill="#ffffff" fill-opacity="1">
	<g id="Layer_1_1_" fill="#ffffff" fill-opacity="1">
		<g id="svg_2" fill="#ffffff" fill-opacity="1">
			<path d="M64.5499936100785,9.222647756180184 c-2.682858981086865,0 -3.952193022921445,2.1004185844311065 -3.952193022921445,2.1004185844311065 s-1.0286374256727462,-2.1004185844311065 -3.5423275586081324,-2.1004185844311065 c-2.114042921194982,0 -3.647916168528183,1.9766641921592178 -3.647916168528183,1.9766641921592178 V9.512164912412576 h-2.7566574718912005 v11.813435335678722 H53.40755686002075 v-6.6940907966517775 c0,-1.2806876558044786 0.6551035260631068,-2.9542103549674237 2.557969227417988,-2.9542103549674237 c1.4464504197649872,0 2.361551705738755,1.0047948363359616 2.361551705738755,2.9542103549674237 v6.6940907966517775 h2.7566574718912005 v-6.497673274972545 c0,-1.7938710072438624 0.7845347253199451,-3.1494925152496673 2.560239950211969,-3.1494925152496673 c1.7155310708515668,0 2.361551705738755,1.228461031542948 2.361551705738755,3.1494925152496673 v6.497673274972545 h2.7566574718912005 v-7.284478723086466 C68.76104903151364,11.374157603475831 67.67223745180041,9.222647756180184 64.5499936100785,9.222647756180184 z" id="svg_3" fill="#ffffff" fill-opacity="1"/>
			<polygon points="77.56918334960938,9.512166500091553 75.09749603271484,17.64817476272583 72.14442443847656,9.512166500091553 69.15387725830078,9.512166500091553 73.90650939941406,21.274515628814697 72.36583709716797,26.049843311309814 75.14746856689453,26.049843311309814 80.48479461669922,9.512166500091553 " id="svg_4" fill="#ffffff" fill-opacity="1"/>
			<path d="M83.42310611223971,12.652574536486329 c0,-0.6505620804751479 0.41327154850428477,-1.1308199514018265 1.5168428263783547,-1.1308199514018265 c1.7325614918064138,0 3.192636248335279,1.1501210951506537 3.192636248335279,1.1501210951506537 l1.2398146455128467,-2.162863461265543 c0,0 -1.86199269106325,-1.3113424135232026 -4.295072164812361,-1.3113424135232026 c-2.5341266380812026,0 -4.300748971797308,1.7132603480575859 -4.300748971797308,3.5593579795629777 c0,4.373412101204655 6.195667143373262,2.951939632173444 6.195667143373262,5.323709590485106 c0,0.9162366473707577 -0.8356259881844844,1.1251431444168771 -1.6587630010020775,1.1251431444168771 c-1.8143075123896786,0 -3.697872069995733,-1.4350968057950892 -3.697872069995733,-1.4350968057950892 l-1.1944001896332552,2.2673167097886022 c0,0 2.066357742521411,1.503218489614478 4.823015214412611,1.503218489614478 c2.467140315658805,0 4.4188265570842455,-1.3658397605787125 4.4188265570842455,-3.7398804416843556 C89.66191698869858,13.857192978692483 83.42310611223971,14.572470658796064 83.42310611223971,12.652574536486329 z" id="svg_5" fill="#ffffff" fill-opacity="1"/>
			<path d="M97.74909621945682,9.220377033386205 c-2.5988422377096208,0 -3.9873892262281276,2.1526452086926335 -3.9873892262281276,2.1526452086926335 v-1.8574512454752914 h-2.757792833288191 v16.53653874715623 h2.757792833288191 v-6.564659597394942 c0,0 1.3953591569004469,2.091335693255186 3.9101846512328224,2.091335693255186 c2.5080133259504374,0 5.605279216938574,-1.8358793789324834 5.605279216938574,-6.126410098156885 C103.27830622279708,12.623055140164594 101.59683599385522,9.220377033386205 97.74909621945682,9.220377033386205 zM97.11442919853955,19.228587747851154 c-2.0447858759786057,0 -3.4798826817736943,-1.7734345020980467 -3.4798826817736943,-3.8273032692525693 c0,-1.8790231120180978 1.348809339623866,-3.8318447148405266 3.408354913763338,-3.8318447148405266 c2.0890649704612065,0 3.436738948688082,1.8154428737866684 3.436738948688082,3.8556873041773123 C100.47964037921726,17.4801311964869 99.15580899032719,19.228587747851154 97.11442919853955,19.228587747851154 z" id="svg_6" fill="#ffffff" fill-opacity="1"/>
			<path d="M114.0347200978783,11.373022242078841 c0,0 -1.3908177113124884,-2.1526452086926335 -3.989659949022108,-2.1526452086926335 c-3.846604413001395,0 -5.52807464194327,3.4026781067783882 -5.52807464194327,6.231998708076935 c0,4.289395357827409 3.0961305295911465,6.126410098156885 5.6064145783355634,6.126410098156885 c2.5148254943323756,0 3.911320012629813,-2.091335693255186 3.911320012629813,-2.091335693255186 v1.8381501017264648 h2.7566574718912005 V9.515570996603545 h-2.7566574718912005 V11.373022242078841 zM110.6819978925675,19.228587747851154 c-2.042515153184626,0 -3.3663465420747145,-1.7507272741582496 -3.3663465420747145,-3.8034606799157835 c0,-2.0402444303906453 1.3499447010208567,-3.8556873041773123 3.436738948688082,-3.8556873041773123 c2.0584102127424813,0 3.408354913763338,1.9539569642194217 3.408354913763338,3.8318447148405266 C114.16188057434118,17.45515324575312 112.72337768435511,19.228587747851154 110.6819978925675,19.228587747851154 z" id="svg_7" fill="#ffffff" fill-opacity="1"/>
			<path d="M124.3687795332794,19.2149634110873 c-2.270722793979572,0 -3.5411921972111426,-1.9369265432645761 -3.5411921972111426,-3.828438630649558 c0,-2.116313643988962 1.6746580605599348,-3.8034606799157835 3.4776119589797143,-3.8034606799157835 c1.9823409991441658,0 3.005301617831963,1.5656633664489163 3.005301617831963,1.5656633664489163 l1.791600284449884,-1.8517744384903414 c0,0 -1.6451386642382002,-2.087929609064218 -4.750352085005264,-2.087929609064218 c-4.115685064087973,0 -6.216103648519078,3.247133595390788 -6.216103648519078,6.238810876458874 c0,3.583200568899765 2.7895829524039035,6.142305157714741 6.202479311755201,6.142305157714741 c2.9666993303343103,0 4.823015214412611,-2.1526452086926335 4.823015214412611,-2.1526452086926335 l-1.7030420954846797,-1.6791995061478944 C127.46377470147354,17.76056546154337 126.38404601293618,19.2149634110873 124.3687795332794,19.2149634110873 z" id="svg_8" fill="#ffffff" fill-opacity="1"/>
			<path d="M140.9109950874205,15.27412400213574 c0,-3.319796724798134 -2.1129075597979923,-6.066235944116427 -5.6768069849489295,-6.066235944116427 c-3.6149906880154803,0 -5.844840471703417,2.9269616814396686 -5.844840471703417,6.244487683443823 c0,3.1267852873098727 2.0708991881093692,6.126410098156885 6.175230638227446,6.126410098156885 c2.6964833178507415,0 3.8545519427803234,-1.121737060225908 4.860482140513273,-2.1038246686220745 l-1.663304446590038,-1.5860998715947316 c-0.2463734231467839,0.23047836358892726 -1.3590275921967738,1.5134367421873862 -3.117702396133952,1.5134367421873862 c-2.0357029848026866,0 -3.4810180431706828,-1.5963181241676394 -3.4810180431706828,-2.9825943898921667 h8.747959563806301 V15.27412400213574 zM132.15168190964434,14.633780174233511 c0,-1.160339347723561 1.0161484503058607,-3.1744704659834437 3.0552575192995137,-3.1744704659834437 c1.9800702763501876,0 3.0473099895205857,1.9539569642194217 3.0473099895205857,3.1744704659834437 H132.15168190964434 z" id="svg_9" fill="#ffffff" fill-opacity="1"/>
			<circle cx="31.032989167167784" cy="13.955968617130665" r="2.653339385986328" id="svg_10" fill="#ffffff" fill-opacity="1"/>
			<circle cx="37.68961347714323" cy="13.178249143418874" r="2.967834711074829" id="svg_11" fill="#ffffff" fill-opacity="1"/>
			<ellipse cx="45.04334853989391" cy="12.229083659806868" rx="3.2550811848283483" ry="3.2811943260824785" id="svg_12" fill="#ffffff" fill-opacity="1"/>
			<path d="M31.00460577461829,16.99192579578128 C29.25728458465101,16.99192579578128 28.088997707148522,18.565536692009136 28.088997707148522,19.994956690819272 v0.9752754400142275 c0,0.21231258123709118 0.141920174623724,0.35082667166984716 0.34742058747887594,0.35082667166984716 h5.1352395985848025 c0.20777113564913144,0 0.34742058747887594,-0.1373787290357651 0.34742058747887594,-0.35082667166984716 v-0.9752754400142275 C33.91794311929409,18.333922967023216 32.59865317599197,16.99192579578128 31.00460577461829,16.99192579578128 z" id="svg_13" fill="#ffffff" fill-opacity="1"/>
			<path d="M37.687342957300174,16.595684668231858 c-1.6746580605599348,0 -3.1744704659834437,1.3919530727094789 -3.1744704659834437,3.2880066056824213 v1.0933530253011647 c0,0.20890649704612216 0.13851409043275453,0.34401450328790734 0.34287914189091767,0.34401450328790734 h5.700649574285715 c0.20550041285515203,0 0.3451498646848974,-0.13510800624178448 0.3451498646848974,-0.34401450328790734 v-1.0933530253011647 C40.90155107217825,18.2567183920279 39.639029198725616,16.595684668231858 37.687342957300174,16.595684668231858 z" id="svg_14" fill="#ffffff" fill-opacity="1"/>
			<path d="M45.08422245868862,16.032545415324925 c-1.7098542638666177,0 -3.571846954929867,1.3771933745486107 -3.571846954929867,3.636562554558285 v1.303394883744275 c0,0.21231258123709118 0.13851409043275453,0.34969131027285566 0.3451498646848974,0.34969131027285566 h6.4295515911531576 c0.20663577425214275,0 0.3451498646848974,-0.13624336763877506 0.3451498646848974,-0.34969131027285566 v-1.303394883744275 C48.632226824281716,17.73672287220659 47.12219616628528,16.032545415324925 45.08422245868862,16.032545415324925 z" id="svg_15" fill="#ffffff" fill-opacity="1"/>
		</g>
	</g>
</g><g id="svg_16">
</g><g id="svg_17">
</g><g id="svg_18">
</g><g id="svg_19">
</g><g id="svg_20">
</g><g id="svg_21">
</g><g id="svg_22">
</g><g id="svg_23">
</g><g id="svg_24">
</g><g id="svg_25">
</g><g id="svg_26">
</g><g id="svg_27">
</g><g id="svg_28">
</g><g id="svg_29">
</g><g id="svg_30">
</g></g></svg>